<svg xmlns="http://www.w3.org/2000/svg" viewBox="0 0 60.71 11.36"><defs><style>.cls-1{fill:#ebebeb;}</style></defs><title>filmlist</title><g id="Layer_1" data-name="Layer 1"><path class="cls-1" d="M12.71,2.82v8.39H10V2.82Z"/><path class="cls-1" d="M14.26,2.82H17V9h3.3v2.2H14.26Z"/><path class="cls-1" d="M32.85,2.82h2.76V9h3.3v2.2H32.85Z"/><path class="cls-1" d="M24.56,7.21v4H21.87V2.82h2.8l1.92,4.05L28.5,2.82h2.8v8.39H28.61v-4L27.44,9.69H25.73Z"/><path class="cls-1" d="M43.22,2.82v8.39H40.46V2.82Z"/><path class="cls-1" d="M49.12,5.34a.83.83,0,0,0-.81-.61c-.37,0-.57.18-.57.39s.08.51,1.11.82c1.78.52,2.82,1.21,2.82,2.74s-1.28,2.68-3.51,2.68a4.45,4.45,0,0,1-3.39-1.83l1-1.11a3.47,3.47,0,0,0,2.3.9c.52,0,.77-.19.77-.47s-.24-.5-1.49-.89C45.53,7.39,45,6.48,45,5.19c0-1.48,1.11-2.52,3.21-2.52a3.17,3.17,0,0,1,3.48,2.66Z"/><path class="cls-1" d="M55.45,5H53.22V2.82h7.22V5H58.21v6.18H55.45Z"/><polygon class="cls-1" points="2.82 2.82 2.82 5.64 0 5.64 0 8.4 2.82 8.4 2.82 11.21 5.58 11.21 5.58 8.4 8.4 8.4 8.4 5.64 5.58 5.64 5.58 2.82 2.82 2.82"/><rect class="cls-1" x="5.58" width="2.82" height="2.82"/></g></svg>