<?xml version="1.0" encoding="utf-8"?>
<!-- Generator: Adobe Illustrator 23.0.3, SVG Export Plug-In . SVG Version: 6.00 Build 0)  -->
<svg version="1.1" id="Layer_1" xmlns="http://www.w3.org/2000/svg" xmlns:xlink="http://www.w3.org/1999/xlink" x="0px" y="0px"
	 viewBox="0 0 73.4 99.7" style="enable-background:new 0 0 73.4 99.7;" xml:space="preserve">
<style type="text/css">
	.st0{fill:#2A2A2A;}
</style>
<title>4</title>
<path class="st0" d="M28.6,11.8C17.1,13.3,8.5,24.3,9.4,36.2c0.1,2.2,0.6,4.3,1.4,6.3c3.2,8,10.4,11.2,12.6,12l6.5,2.3l1.5,0.6
	l-1.5,4.2l11.2,4.2c0.3,0.1,0.4,0.5,0.3,0.8c-0.1,0.2-0.2,0.3-0.4,0.3l-19,2.6L4.2,71.8c-1.9,0.3-3.3,1.9-3.4,3.9L0,94l36.6-5l7.7-1
	l0.5-0.1C56,86.2,64.3,75.4,63.5,63.6c-0.4-8.2-5.7-15.3-13.4-18l-7-2.7l-1.5-0.5l1.5-4.2L32.3,34c-0.3-0.2-0.3-0.5-0.2-0.8
	c0.1-0.1,0.2-0.2,0.3-0.2L51,30.4l18.6-2.5c1.8-0.3,3.1-1.8,3.2-3.6l0.6-18.5L28.6,11.8z"/>
</svg>
